<?xml version="1.0" encoding="UTF-8" standalone="no"?><svg xmlns="http://www.w3.org/2000/svg" viewBox="0 0 380.63 387.95"><defs><style>.d{fill:#fff;}</style></defs><g id="a"/><g id="b"><g id="c"><path class="d" d="M375.41,275.27l-93.31-31.28c-20.3-6.87-27.37-18.46-21.62-35.44,1.1-3.26,2.73-6.76,4.86-10.48l32.59-43.8c.57-.73,1.15-1.46,1.72-2.22l17.85-24.09,46.72-62.79-.11-.08,.02-.03-16.64-12.41c-3.39-2.53-8.21-1.83-10.75,1.57l-58.58,79.08c-12.81,17.18-26.02,20.32-40.39,9.61-1.48-1.11-2.99-2.41-4.51-3.84L136.37,4.28l-3.05-4.28h-.02l-.76,.55-16.16,11.44c-3.46,2.45-4.28,7.25-1.83,10.7l57.11,80.15c12.38,17.49,11.29,31.02-3.34,41.38-3.18,2.25-7.12,4.35-11.7,6.31l-53.14,16.36h-.05l-.12,.05L0,198.76l.19,.62-.06,.02,6.17,19.82c1.26,4.04,5.57,6.31,9.61,5.05l93.88-29.54c20.46-6.37,32.99-1.15,38.32,15.96,1.05,3.38,1.8,7.32,2.27,11.74l-.6,54.15c-.04,.96-.13,1.86-.14,2.84l-.67,70.63-.41,37.37h.06v.29l20.76,.25c4.23,.05,7.72-3.35,7.77-7.58l.91-98.41c.26-21.43,9.1-31.74,27.02-31.52,5.23,.06,11.38,1.12,18.33,3.09l12.89,4.37c.91,.35,1.8,.68,2.73,1.06,.59,.24,1.19,.38,1.79,.47l20.59,6.99c2.95,1.38,6.11,2.65,9.51,3.81l102.66,34.44,6.66-19.66c1.36-4.01-.8-8.38-4.81-9.73Zm-145.5-61.32c0,6.36,1.37,12.39,3.78,17.85-7.82-6.99-18.12-11.27-29.43-11.27s-21.09,4.06-28.84,10.73c2.26-5.32,3.52-11.17,3.52-17.32,0-16.72-9.28-31.26-22.96-38.79,1.39,.13,2.79,.21,4.21,.21,23.12,0,42.07-17.74,44.06-40.34,1.72,22.87,20.78,40.89,44.08,40.89,1.21,0,2.4-.09,3.59-.18-13.15,7.67-22,21.89-22,38.21Z"/></g></g></svg>