<?xml version="1.0" encoding="UTF-8"?><svg xmlns="http://www.w3.org/2000/svg" viewBox="0 0 34.29 56.03"><defs><style>.d{fill:#0062c4;}</style></defs><g id="a"/><g id="b"><g id="c"><g><path class="d" d="M27.5,30.43c-4.73,0-7.13,2.44-7.13,7.24v18.36h2.73c.56,0,1.01-.45,1.01-1.01v-17.06c0-2.82,1.15-4.19,3.5-4.19,1.16,0,2.67,.36,4.48,1.07,.51,.2,1.07-.03,1.29-.53l.92-2.07-.17-.09c-2.16-1.14-4.39-1.72-6.62-1.72Z"/><path class="d" d="M21.29,21.72l-.92,2.07,.17,.09c2.16,1.14,4.39,1.72,6.62,1.72,4.73,0,7.13-2.44,7.13-7.24V0h-2.73c-.56,0-1.01,.45-1.01,1.01V18.07c0,2.82-1.15,4.19-3.5,4.19-1.16,0-2.67-.36-4.48-1.07-.51-.2-1.07,.03-1.29,.53Z"/><path class="d" d="M23.19,15.56l.92-2.07-.17-.09c-2.16-1.14-4.39-1.72-6.62-1.72-4.73,0-7.13,2.44-7.13,7.24v18.02c-.03,2.74-1.17,4.08-3.49,4.08-1.16,0-2.67-.36-4.48-1.07-.51-.2-1.07,.03-1.29,.53l-.92,2.07,.17,.09c2.16,1.14,4.39,1.72,6.62,1.72,4.73,0,7.13-2.44,7.13-7.24V19.1c.03-2.74,1.17-4.08,3.49-4.08,1.16,0,2.67,.36,4.48,1.07,.51,.2,1.07-.03,1.29-.53Z"/></g></g></g></svg>